Coordinates
version=1
nRows=18
nColumns=38
inDegrees=no

Units are S.I. units (second, meters, Newtons, ...)
If the header above contains a line with 'inDegrees', this indicates whether rotational values are in degrees (yes) or radians (no).

endheader
time	pelvis_tilt	pelvis_list	pelvis_rotation	pelvis_tx	pelvis_ty	pelvis_tz	hip_flexion_r	hip_adduction_r	hip_rotation_r	knee_angle_r	ankle_angle_r	subtalar_angle_r	mtp_angle_r	hip_flexion_l	hip_adduction_l	hip_rotation_l	knee_angle_l	ankle_angle_l	subtalar_angle_l	mtp_angle_l	lumbar_extension	lumbar_bending	lumbar_rotation	arm_flex_r	arm_add_r	arm_rot_r	elbow_flex_r	pro_sup_r	wrist_flex_r	wrist_dev_r	arm_flex_l	arm_add_l	arm_rot_l	elbow_flex_l	pro_sup_l	wrist_flex_l	wrist_dev_l
1.13333	0.0626455	-0.0180807	0.0160748	0.909821	1.072	-0.318475	0.41406	0.0532269	-0.155955	-0.291838	0.0563148	0.0529922	6.43763e-05	-0.423923	-0.0147048	-0.282669	-0.567962	-0.281432	0.0618433	4.41804e-05	-0.322404	0.0566586	-0.265505	-0.73075	-0.278762	-0.209238	1.80491	2.09733	0.00752624	-0.0191875	-0.231345	-0.253096	0.105136	2.30153	1.84394	0.00775153	-0.00801938
1.14167	0.0749218	-0.0243941	0.00950297	0.910417	1.0688	-0.317534	0.393072	0.0658029	-0.14648	-0.305791	0.0205527	0.0529922	6.43763e-05	-0.412434	-0.0271739	-0.28012	-0.657644	-0.266839	0.0618433	4.41804e-05	-0.338219	0.062425	-0.251363	-0.713071	-0.29129	-0.208786	1.81298	2.09361	0.00752624	-0.0191875	-0.241944	-0.252647	0.111022	2.29786	1.84057	0.00775153	-0.00801938
1.15	0.0870919	-0.0324737	0.00322892	0.910573	1.06491	-0.316537	0.375695	0.0803711	-0.136732	-0.329673	-0.00370163	0.0529922	6.43763e-05	-0.398726	-0.0410177	-0.2769	-0.747076	-0.253099	0.0618433	4.41804e-05	-0.354843	0.0695473	-0.235827	-0.692232	-0.304584	-0.206759	1.81877	2.08822	0.00752624	-0.0191875	-0.250913	-0.252147	0.116638	2.29069	1.83619	0.00775153	-0.00801938
1.15833	0.0991369	-0.0422875	-0.00273648	0.910285	1.06038	-0.315511	0.361889	0.0968769	-0.126797	-0.363323	-0.0163784	0.0529922	6.43763e-05	-0.382759	-0.0562078	-0.272993	-0.836222	-0.240118	0.0618433	4.41804e-05	-0.372258	0.0780065	-0.218926	-0.668187	-0.318633	-0.203131	1.82223	2.08121	0.00752624	-0.0191875	-0.25823	-0.251584	0.121982	2.27995	1.8308	0.00775153	-0.00801938
1.16667	0.111006	-0.0537302	-0.0083629	0.909553	1.05533	-0.314494	0.351475	0.115136	-0.11691	-0.406143	-0.0174259	0.0529922	6.43763e-05	-0.364431	-0.0726345	-0.268341	-0.924951	-0.227655	0.0618433	4.41804e-05	-0.390407	0.0877302	-0.200745	-0.640798	-0.333398	-0.197829	1.82312	2.07278	0.00752624	-0.0191875	-0.263829	-0.250915	0.12705	2.26546	1.82453	0.00775153	-0.00801938
1.175	0.12262	-0.0665807	-0.0135962	0.908387	1.04998	-0.31353	0.344001	0.134776	-0.107466	-0.45683	-0.0070855	0.0529922	6.43763e-05	-0.343577	-0.0900528	-0.262818	-1.01297	-0.215314	0.0618433	4.41804e-05	-0.40918	0.0985626	-0.181455	-0.609836	-0.3488	-0.190724	1.82108	2.06328	0.00752624	-0.0191875	-0.267607	-0.25006	0.131838	2.24687	1.81756	0.00775153	-0.00801938
1.18333	0.133902	-0.0804796	-0.0183595	0.906808	1.0446	-0.312661	0.338657	0.155222	-0.0989405	-0.513236	0.0137918	0.0529922	6.43763e-05	-0.320002	-0.108049	-0.256217	-1.09977	-0.202623	0.0618433	4.41804e-05	-0.428405	0.110245	-0.161318	-0.575026	-0.3647	-0.181657	1.81562	2.05326	0.00752624	-0.0191875	-0.269451	-0.248902	0.136348	2.22372	1.81024	0.00775153	-0.00801938
1.19167	0.144761	-0.094972	-0.0225529	0.904843	1.03941	-0.311925	0.334293	0.17574	-0.091759	-0.572485	0.0435898	0.0529922	6.43763e-05	-0.293528	-0.126056	-0.248272	-1.18463	-0.189111	0.0618433	4.41804e-05	-0.447848	0.122418	-0.140665	-0.536152	-0.3809	-0.17048	1.80625	2.04331	0.00752624	-0.0191875	-0.269283	-0.247318	0.140606	2.19558	1.8029	0.00775153	-0.00801938
1.2	0.155078	-0.109528	-0.0260715	0.902528	1.03449	-0.311352	0.329558	0.195548	-0.0861608	-0.631332	0.0800482	0.0529922	6.43763e-05	-0.264036	-0.143427	-0.238718	-1.26664	-0.174408	0.0618433	4.41804e-05	-0.467221	0.134654	-0.119855	-0.493176	-0.39713	-0.157126	1.79272	2.03397	0.00752624	-0.0191875	-0.267114	-0.245216	0.144681	2.16221	1.79585	0.00775153	-0.00801938
1.20833	0.164694	-0.123596	-0.0288343	0.899905	1.02989	-0.310961	0.323132	0.213928	-0.0821155	-0.686666	0.120605	0.0529922	6.43763e-05	-0.231496	-0.159528	-0.227366	-1.34477	-0.158332	0.0618433	4.41804e-05	-0.486189	0.146495	-0.0992067	-0.446364	-0.413063	-0.141673	1.7752	2.02566	0.00752624	-0.0191875	-0.263089	-0.242583	0.148682	2.12374	1.78924	0.00775153	-0.00801938
1.21667	0.173449	-0.136648	-0.030826	0.897029	1.02567	-0.310752	0.313959	0.230331	-0.0793178	-0.735951	0.162793	0.0529922	6.43763e-05	-0.195968	-0.173838	-0.214187	-1.41795	-0.14095	0.0618433	4.41804e-05	-0.504373	0.157477	-0.0789424	-0.396346	-0.42832	-0.124404	1.75441	2.01856	0.00752624	-0.0191875	-0.257524	-0.239535	0.152752	2.08089	1.78315	0.00775153	-0.00801938
1.225	0.18118	-0.148254	-0.03213	0.893973	1.02191	-0.310691	0.301384	0.244402	-0.0772446	-0.777502	0.204537	0.0529922	6.43763e-05	-0.157606	-0.186004	-0.199371	-1.48515	-0.1226	0.0618433	4.41804e-05	-0.521374	0.167141	-0.0591513	-0.344122	-0.442501	-0.10583	1.73168	2.01266	0.00752624	-0.0191875	-0.250922	-0.236328	0.157033	2.035	1.77761	0.00775153	-0.00801938
1.23333	0.187736	-0.158087	-0.0329449	0.89081	1.01867	-0.310712	0.285181	0.255974	-0.0752391	-0.810512	0.24428	0.0529922	6.43763e-05	-0.116666	-0.195861	-0.183342	-1.54546	-0.103853	0.0618433	4.41804e-05	-0.536807	0.175038	-0.039788	-0.290969	-0.455219	-0.0866731	1.70888	2.00776	0.00752624	-0.0191875	-0.243962	-0.233339	0.161631	1.9881	1.77266	0.00775153	-0.00801938
1.24167	0.192975	-0.165913	-0.0335771	0.887618	1.01605	-0.310735	0.265459	0.265017	-0.0725903	-0.834917	0.280968	0.0529922	6.43763e-05	-0.0735222	-0.203412	-0.166746	-1.59809	-0.0854292	0.0618433	4.41804e-05	-0.550347	0.180747	-0.0207087	-0.238302	-0.466143	-0.0678005	1.68822	2.00366	0.00752624	-0.0191875	-0.237469	-0.23101	0.16657	1.94265	1.76851	0.00775153	-0.00801938
1.25	0.196782	-0.171572	-0.0344074	0.884478	1.01409	-0.310684	0.242551	0.271569	-0.0686096	-0.851142	0.313973	0.0529922	6.43763e-05	-0.0286434	-0.208782	-0.150394	-1.64241	-0.0680501	0.0618433	4.41804e-05	-0.561728	0.183894	-0.00173895	-0.187497	-0.475027	-0.0501228	1.67189	2.0002	0.00752624	-0.0191875	-0.232353	-0.229771	0.171754	1.90138	1.76548	0.00775153	-0.00801938
1.25833	0.199062	-0.17497	-0.0358366	0.881469	1.0128	-0.3105	0.216907	0.275683	-0.0626936	-0.859859	0.342983	0.0529922	6.43763e-05	0.017439	-0.212184	-0.135186	-1.67797	-0.0522996	0.0618433	4.41804e-05	-0.570727	0.184181	0.0172584	-0.139741	-0.481729	-0.034476	1.66185	1.99736	0.00752624	-0.0191875	-0.229527	-0.229959	0.176942	1.86689	1.76397	0.00775153	-0.00801938
1.26667	0.199724	-0.176068	-0.0382252	0.878657	1.01218	-0.31014	0.189021	0.277386	-0.0543882	-0.861788	0.367903	0.0529922	6.43763e-05	0.0641873	-0.213879	-0.122027	-1.7045	-0.0385084	0.0618433	4.41804e-05	-0.577132	0.181415	0.0363335	-0.0959209	-0.486212	-0.0215153	1.65947	1.99529	0.00752624	-0.0191875	-0.229811	-0.231758	0.181759	1.84127	1.76431	0.00775153	-0.00801938
1.275	0.19867	-0.17487	-0.0418347	0.876098	1.01222	-0.309581	0.159403	0.276672	-0.0434546	-0.857571	0.388731	0.0529922	6.43763e-05	0.111106	-0.214159	-0.111742	-1.72189	-0.0267147	0.0618433	4.41804e-05	-0.580715	0.175535	0.0554282	-0.0565914	-0.488525	-0.0116406	1.66546	1.99417	0.00752624	-0.0191875	-0.233818	-0.235174	0.185738	1.82588	1.76662	0.00775153	-0.00801938
